<mxfile host="app.diagrams.net" modified="2021-10-26T05:53:40.640Z" agent="5.0 (Windows NT 10.0; Win64; x64) AppleWebKit/537.36 (KHTML, like Gecko) Chrome/93.0.4577.82 YaBrowser/21.9.1.684 Yowser/2.5 Safari/537.36" etag="HLZZjeHL2QOITCdR32Kz" version="15.5.9" type="github">
  <diagram id="C5RBs43oDa-KdzZeNtuy" name="Page-1">
    <mxGraphModel dx="1394" dy="704" grid="1" gridSize="10" guides="1" tooltips="1" connect="1" arrows="1" fold="1" page="1" pageScale="1" pageWidth="827" pageHeight="1169" math="0" shadow="0">
      <root>
        <mxCell id="WIyWlLk6GJQsqaUBKTNV-0" />
        <mxCell id="WIyWlLk6GJQsqaUBKTNV-1" parent="WIyWlLk6GJQsqaUBKTNV-0" />
        <mxCell id="WIyWlLk6GJQsqaUBKTNV-2" value="" style="rounded=0;html=1;jettySize=auto;orthogonalLoop=1;fontSize=11;endArrow=block;endFill=0;endSize=8;strokeWidth=1;shadow=0;labelBackgroundColor=none;edgeStyle=orthogonalEdgeStyle;" parent="WIyWlLk6GJQsqaUBKTNV-1" target="WIyWlLk6GJQsqaUBKTNV-6" edge="1">
          <mxGeometry relative="1" as="geometry">
            <mxPoint x="220" y="120" as="sourcePoint" />
          </mxGeometry>
        </mxCell>
        <mxCell id="WIyWlLk6GJQsqaUBKTNV-4" value="No" style="rounded=0;html=1;jettySize=auto;orthogonalLoop=1;fontSize=11;endArrow=block;endFill=0;endSize=8;strokeWidth=1;shadow=0;labelBackgroundColor=none;edgeStyle=orthogonalEdgeStyle;" parent="WIyWlLk6GJQsqaUBKTNV-1" source="WIyWlLk6GJQsqaUBKTNV-6" target="WIyWlLk6GJQsqaUBKTNV-10" edge="1">
          <mxGeometry x="0.6667" y="-20" relative="1" as="geometry">
            <mxPoint as="offset" />
          </mxGeometry>
        </mxCell>
        <mxCell id="WIyWlLk6GJQsqaUBKTNV-5" value="Yes" style="edgeStyle=orthogonalEdgeStyle;rounded=0;html=1;jettySize=auto;orthogonalLoop=1;fontSize=11;endArrow=block;endFill=0;endSize=8;strokeWidth=1;shadow=0;labelBackgroundColor=none;" parent="WIyWlLk6GJQsqaUBKTNV-1" source="WIyWlLk6GJQsqaUBKTNV-6" edge="1">
          <mxGeometry y="10" relative="1" as="geometry">
            <mxPoint as="offset" />
            <mxPoint x="320" y="230" as="targetPoint" />
          </mxGeometry>
        </mxCell>
        <mxCell id="WIyWlLk6GJQsqaUBKTNV-6" value="3&amp;lt;=n&amp;lt;=5" style="rhombus;whiteSpace=wrap;html=1;shadow=1;fontFamily=Helvetica;fontSize=12;align=center;strokeWidth=1;spacing=6;spacingTop=-4;" parent="WIyWlLk6GJQsqaUBKTNV-1" vertex="1">
          <mxGeometry x="160" y="200" width="120" height="60" as="geometry" />
        </mxCell>
        <mxCell id="WIyWlLk6GJQsqaUBKTNV-9" value="Yes" style="edgeStyle=orthogonalEdgeStyle;rounded=0;html=1;jettySize=auto;orthogonalLoop=1;fontSize=11;endArrow=block;endFill=0;endSize=8;strokeWidth=1;shadow=0;labelBackgroundColor=none;startArrow=none;exitX=1;exitY=0.5;exitDx=0;exitDy=0;" parent="WIyWlLk6GJQsqaUBKTNV-1" source="WIyWlLk6GJQsqaUBKTNV-10" edge="1">
          <mxGeometry y="10" relative="1" as="geometry">
            <mxPoint as="offset" />
            <mxPoint x="500" y="400" as="sourcePoint" />
            <mxPoint x="320" y="310" as="targetPoint" />
          </mxGeometry>
        </mxCell>
        <mxCell id="WIyWlLk6GJQsqaUBKTNV-10" value="6&amp;lt;=n&amp;lt;=8" style="rhombus;whiteSpace=wrap;html=1;shadow=1;fontFamily=Helvetica;fontSize=12;align=center;strokeWidth=1;spacing=6;spacingTop=-4;" parent="WIyWlLk6GJQsqaUBKTNV-1" vertex="1">
          <mxGeometry x="160" y="280" width="120" height="60" as="geometry" />
        </mxCell>
        <mxCell id="GC1ThUPoOPe5oqfeXjXS-0" value="Begin" style="ellipse;whiteSpace=wrap;html=1;shadow=1;" vertex="1" parent="WIyWlLk6GJQsqaUBKTNV-1">
          <mxGeometry x="160" y="80" width="120" height="40" as="geometry" />
        </mxCell>
        <mxCell id="GC1ThUPoOPe5oqfeXjXS-1" value="n" style="shape=parallelogram;perimeter=parallelogramPerimeter;whiteSpace=wrap;html=1;fixedSize=1;shadow=1;" vertex="1" parent="WIyWlLk6GJQsqaUBKTNV-1">
          <mxGeometry x="160" y="140" width="120" height="40" as="geometry" />
        </mxCell>
        <mxCell id="GC1ThUPoOPe5oqfeXjXS-2" value="9&amp;lt;=n&amp;lt;=11" style="rhombus;whiteSpace=wrap;html=1;shadow=1;" vertex="1" parent="WIyWlLk6GJQsqaUBKTNV-1">
          <mxGeometry x="160" y="360" width="120" height="60" as="geometry" />
        </mxCell>
        <mxCell id="GC1ThUPoOPe5oqfeXjXS-5" value="Spring" style="shape=parallelogram;perimeter=parallelogramPerimeter;whiteSpace=wrap;html=1;fixedSize=1;shadow=1;" vertex="1" parent="WIyWlLk6GJQsqaUBKTNV-1">
          <mxGeometry x="310" y="210" width="120" height="40" as="geometry" />
        </mxCell>
        <mxCell id="GC1ThUPoOPe5oqfeXjXS-9" value="Summer" style="shape=parallelogram;perimeter=parallelogramPerimeter;whiteSpace=wrap;html=1;fixedSize=1;shadow=1;" vertex="1" parent="WIyWlLk6GJQsqaUBKTNV-1">
          <mxGeometry x="310" y="290" width="120" height="40" as="geometry" />
        </mxCell>
        <mxCell id="GC1ThUPoOPe5oqfeXjXS-11" value="Yes" style="edgeStyle=orthogonalEdgeStyle;rounded=0;html=1;jettySize=auto;orthogonalLoop=1;fontSize=11;endArrow=block;endFill=0;endSize=8;strokeWidth=1;shadow=0;labelBackgroundColor=none;startArrow=none;exitX=1;exitY=0.5;exitDx=0;exitDy=0;" edge="1" parent="WIyWlLk6GJQsqaUBKTNV-1">
          <mxGeometry y="10" relative="1" as="geometry">
            <mxPoint as="offset" />
            <mxPoint x="280" y="389.5" as="sourcePoint" />
            <mxPoint x="320" y="389.5" as="targetPoint" />
            <Array as="points">
              <mxPoint x="300" y="390" />
              <mxPoint x="300" y="390" />
            </Array>
          </mxGeometry>
        </mxCell>
        <mxCell id="GC1ThUPoOPe5oqfeXjXS-12" value="Autumn" style="shape=parallelogram;perimeter=parallelogramPerimeter;whiteSpace=wrap;html=1;fixedSize=1;shadow=1;" vertex="1" parent="WIyWlLk6GJQsqaUBKTNV-1">
          <mxGeometry x="310" y="370" width="120" height="40" as="geometry" />
        </mxCell>
        <mxCell id="GC1ThUPoOPe5oqfeXjXS-13" value="Winter" style="shape=parallelogram;perimeter=parallelogramPerimeter;whiteSpace=wrap;html=1;fixedSize=1;shadow=1;" vertex="1" parent="WIyWlLk6GJQsqaUBKTNV-1">
          <mxGeometry x="310" y="455" width="120" height="40" as="geometry" />
        </mxCell>
        <mxCell id="GC1ThUPoOPe5oqfeXjXS-14" value="Month didn&#39;t exist" style="shape=parallelogram;perimeter=parallelogramPerimeter;whiteSpace=wrap;html=1;fixedSize=1;shadow=1;size=20;" vertex="1" parent="WIyWlLk6GJQsqaUBKTNV-1">
          <mxGeometry x="160" y="540" width="120" height="40" as="geometry" />
        </mxCell>
        <mxCell id="GC1ThUPoOPe5oqfeXjXS-19" value="n=12 or n=1&lt;br&gt;or n=2" style="rhombus;whiteSpace=wrap;html=1;shadow=1;fontFamily=Helvetica;fontSize=12;align=center;strokeWidth=1;spacing=6;spacingTop=-4;" vertex="1" parent="WIyWlLk6GJQsqaUBKTNV-1">
          <mxGeometry x="160" y="440" width="120" height="70" as="geometry" />
        </mxCell>
        <mxCell id="GC1ThUPoOPe5oqfeXjXS-28" value="Yes" style="edgeStyle=orthogonalEdgeStyle;rounded=0;html=1;jettySize=auto;orthogonalLoop=1;fontSize=11;endArrow=block;endFill=0;endSize=8;strokeWidth=1;shadow=0;labelBackgroundColor=none;startArrow=none;exitX=1;exitY=0.5;exitDx=0;exitDy=0;" edge="1" parent="WIyWlLk6GJQsqaUBKTNV-1">
          <mxGeometry y="10" relative="1" as="geometry">
            <mxPoint as="offset" />
            <mxPoint x="281" y="475" as="sourcePoint" />
            <mxPoint x="321" y="475" as="targetPoint" />
            <Array as="points">
              <mxPoint x="301" y="475" />
              <mxPoint x="301" y="475" />
            </Array>
          </mxGeometry>
        </mxCell>
        <mxCell id="GC1ThUPoOPe5oqfeXjXS-36" value="" style="rounded=0;html=1;jettySize=auto;orthogonalLoop=1;fontSize=11;endArrow=block;endFill=0;endSize=8;strokeWidth=1;shadow=0;labelBackgroundColor=none;edgeStyle=orthogonalEdgeStyle;" edge="1" parent="WIyWlLk6GJQsqaUBKTNV-1">
          <mxGeometry relative="1" as="geometry">
            <mxPoint x="219.5" y="510" as="sourcePoint" />
            <mxPoint x="219.5" y="540" as="targetPoint" />
            <Array as="points">
              <mxPoint x="219.5" y="530" />
              <mxPoint x="219.5" y="530" />
            </Array>
          </mxGeometry>
        </mxCell>
        <mxCell id="GC1ThUPoOPe5oqfeXjXS-37" value="" style="rounded=0;html=1;jettySize=auto;orthogonalLoop=1;fontSize=11;endArrow=block;endFill=0;endSize=8;strokeWidth=1;shadow=0;labelBackgroundColor=none;edgeStyle=orthogonalEdgeStyle;" edge="1" parent="WIyWlLk6GJQsqaUBKTNV-1">
          <mxGeometry relative="1" as="geometry">
            <mxPoint x="219.5" y="420" as="sourcePoint" />
            <mxPoint x="219.5" y="440" as="targetPoint" />
            <Array as="points">
              <mxPoint x="219.5" y="430" />
              <mxPoint x="219.5" y="430" />
            </Array>
          </mxGeometry>
        </mxCell>
        <mxCell id="GC1ThUPoOPe5oqfeXjXS-39" value="" style="rounded=0;html=1;jettySize=auto;orthogonalLoop=1;fontSize=11;endArrow=block;endFill=0;endSize=8;strokeWidth=1;shadow=0;labelBackgroundColor=none;edgeStyle=orthogonalEdgeStyle;" edge="1" parent="WIyWlLk6GJQsqaUBKTNV-1">
          <mxGeometry relative="1" as="geometry">
            <mxPoint x="219.5" y="340" as="sourcePoint" />
            <mxPoint x="219.5" y="360" as="targetPoint" />
            <Array as="points">
              <mxPoint x="219.5" y="350" />
              <mxPoint x="219.5" y="350" />
            </Array>
          </mxGeometry>
        </mxCell>
        <mxCell id="GC1ThUPoOPe5oqfeXjXS-42" value="No" style="rounded=0;html=1;jettySize=auto;orthogonalLoop=1;fontSize=11;endArrow=block;endFill=0;endSize=8;strokeWidth=1;shadow=0;labelBackgroundColor=none;edgeStyle=orthogonalEdgeStyle;" edge="1" parent="WIyWlLk6GJQsqaUBKTNV-1">
          <mxGeometry x="0.6667" y="-20" relative="1" as="geometry">
            <mxPoint as="offset" />
            <mxPoint x="219.5" y="340" as="sourcePoint" />
            <mxPoint x="219.5" y="360" as="targetPoint" />
            <Array as="points">
              <mxPoint x="219.5" y="350" />
              <mxPoint x="219.5" y="350" />
            </Array>
          </mxGeometry>
        </mxCell>
        <mxCell id="GC1ThUPoOPe5oqfeXjXS-43" value="No" style="rounded=0;html=1;jettySize=auto;orthogonalLoop=1;fontSize=11;endArrow=block;endFill=0;endSize=8;strokeWidth=1;shadow=0;labelBackgroundColor=none;edgeStyle=orthogonalEdgeStyle;" edge="1" parent="WIyWlLk6GJQsqaUBKTNV-1">
          <mxGeometry x="0.6667" y="-20" relative="1" as="geometry">
            <mxPoint as="offset" />
            <mxPoint x="219.5" y="420" as="sourcePoint" />
            <mxPoint x="219.5" y="440" as="targetPoint" />
          </mxGeometry>
        </mxCell>
        <mxCell id="GC1ThUPoOPe5oqfeXjXS-44" value="No" style="rounded=0;html=1;jettySize=auto;orthogonalLoop=1;fontSize=11;endArrow=block;endFill=0;endSize=8;strokeWidth=1;shadow=0;labelBackgroundColor=none;edgeStyle=orthogonalEdgeStyle;" edge="1" parent="WIyWlLk6GJQsqaUBKTNV-1">
          <mxGeometry x="0.6667" y="-20" relative="1" as="geometry">
            <mxPoint as="offset" />
            <mxPoint x="219.5" y="520" as="sourcePoint" />
            <mxPoint x="219.5" y="540" as="targetPoint" />
          </mxGeometry>
        </mxCell>
        <mxCell id="GC1ThUPoOPe5oqfeXjXS-45" value="" style="rounded=0;html=1;jettySize=auto;orthogonalLoop=1;fontSize=11;endArrow=block;endFill=0;endSize=8;strokeWidth=1;shadow=0;labelBackgroundColor=none;edgeStyle=orthogonalEdgeStyle;exitX=1;exitY=0.5;exitDx=0;exitDy=0;" edge="1" parent="WIyWlLk6GJQsqaUBKTNV-1" source="GC1ThUPoOPe5oqfeXjXS-5">
          <mxGeometry relative="1" as="geometry">
            <mxPoint x="530" y="260" as="sourcePoint" />
            <mxPoint x="480" y="640" as="targetPoint" />
            <Array as="points">
              <mxPoint x="480" y="230" />
            </Array>
          </mxGeometry>
        </mxCell>
        <mxCell id="GC1ThUPoOPe5oqfeXjXS-46" value="" style="rounded=0;html=1;jettySize=auto;orthogonalLoop=1;fontSize=11;endArrow=block;endFill=0;endSize=8;strokeWidth=1;shadow=0;labelBackgroundColor=none;edgeStyle=orthogonalEdgeStyle;exitX=1;exitY=0.5;exitDx=0;exitDy=0;entryX=1;entryY=0.5;entryDx=0;entryDy=0;" edge="1" parent="WIyWlLk6GJQsqaUBKTNV-1" source="GC1ThUPoOPe5oqfeXjXS-9" target="GC1ThUPoOPe5oqfeXjXS-49">
          <mxGeometry relative="1" as="geometry">
            <mxPoint x="470" y="380" as="sourcePoint" />
            <mxPoint x="270" y="640" as="targetPoint" />
            <Array as="points">
              <mxPoint x="480" y="310" />
              <mxPoint x="480" y="640" />
            </Array>
          </mxGeometry>
        </mxCell>
        <mxCell id="GC1ThUPoOPe5oqfeXjXS-47" value="" style="rounded=0;html=1;jettySize=auto;orthogonalLoop=1;fontSize=11;endArrow=block;endFill=0;endSize=8;strokeWidth=1;shadow=0;labelBackgroundColor=none;edgeStyle=orthogonalEdgeStyle;" edge="1" parent="WIyWlLk6GJQsqaUBKTNV-1">
          <mxGeometry relative="1" as="geometry">
            <mxPoint x="370" y="498" as="sourcePoint" />
            <mxPoint x="260" y="638" as="targetPoint" />
            <Array as="points">
              <mxPoint x="370" y="498" />
              <mxPoint x="370" y="638" />
            </Array>
          </mxGeometry>
        </mxCell>
        <mxCell id="GC1ThUPoOPe5oqfeXjXS-49" value="End&lt;br&gt;" style="ellipse;whiteSpace=wrap;html=1;shadow=1;" vertex="1" parent="WIyWlLk6GJQsqaUBKTNV-1">
          <mxGeometry x="180" y="624" width="80" height="30" as="geometry" />
        </mxCell>
        <mxCell id="GC1ThUPoOPe5oqfeXjXS-51" value="" style="rounded=0;html=1;jettySize=auto;orthogonalLoop=1;fontSize=11;endArrow=block;endFill=0;endSize=8;strokeWidth=1;shadow=0;labelBackgroundColor=none;edgeStyle=orthogonalEdgeStyle;" edge="1" parent="WIyWlLk6GJQsqaUBKTNV-1">
          <mxGeometry relative="1" as="geometry">
            <mxPoint x="219.5" y="582" as="sourcePoint" />
            <mxPoint x="219.5" y="622" as="targetPoint" />
            <Array as="points">
              <mxPoint x="219.5" y="612" />
              <mxPoint x="219.5" y="612" />
            </Array>
          </mxGeometry>
        </mxCell>
      </root>
    </mxGraphModel>
  </diagram>
</mxfile>
